<svg xmlns="http://www.w3.org/2000/svg" width="412" height="118" viewBox="0 0 412 118" role="img"><style>
text{font-family:ui-monospace,SFMono-Regular,'JetBrains Mono',Menlo,Consolas,monospace;fill:#dfe5ec}
.m{fill:#9aa6b4}.d{fill:#5f6c7c}.chem{fill:#a78bfa}
.b{font-weight:700}
.fade{opacity:0;animation:fade .6s ease-out forwards}
.rise{opacity:0;animation:rise .6s cubic-bezier(.2,.8,.2,1) forwards}
.draw{animation:draw 1s ease-out forwards}
.pop{opacity:0;transform-box:fill-box;transform-origin:center;animation:pop .45s cubic-bezier(.3,1.6,.5,1) forwards}
@keyframes fade{to{opacity:1}}
@keyframes rise{from{opacity:0;transform:translateY(8px)}to{opacity:1;transform:none}}
@keyframes draw{to{stroke-dashoffset:0}}
@keyframes pop{from{opacity:0;transform:scale(.2)}to{opacity:1;transform:scale(1)}}
</style><rect width="412" height="118" rx="14" fill="#0b0f14"/><rect x=".5" y=".5" width="411" height="117" rx="14" fill="#ffffff" fill-opacity=".04" stroke="#ffffff" stroke-opacity=".11"/><g transform="translate(58.0 59.0) scale(.5) translate(-58.0 -59.0)"><rect x="8.0" y="9.0" width="100" height="100" rx="6" fill="#c69c5d"/><line x1="20.0" y1="21.0" x2="96.0" y2="21.0" stroke="#4a3518"/><line x1="20.0" y1="21.0" x2="20.0" y2="97.0" stroke="#4a3518"/><line x1="20.0" y1="40.0" x2="96.0" y2="40.0" stroke="#4a3518"/><line x1="39.0" y1="21.0" x2="39.0" y2="97.0" stroke="#4a3518"/><line x1="20.0" y1="59.0" x2="96.0" y2="59.0" stroke="#4a3518"/><line x1="58.0" y1="21.0" x2="58.0" y2="97.0" stroke="#4a3518"/><line x1="20.0" y1="78.0" x2="96.0" y2="78.0" stroke="#4a3518"/><line x1="77.0" y1="21.0" x2="77.0" y2="97.0" stroke="#4a3518"/><line x1="20.0" y1="97.0" x2="96.0" y2="97.0" stroke="#4a3518"/><line x1="96.0" y1="21.0" x2="96.0" y2="97.0" stroke="#4a3518"/><circle cx="39.0" cy="40.0" r="8" fill="#111"/><circle cx="58.0" cy="40.0" r="8" fill="#f2f2f2"/><circle cx="39.0" cy="59.0" r="8" fill="#f2f2f2"/><circle cx="77.0" cy="59.0" r="8" fill="#111"/><circle cx="58.0" cy="78.0" r="8" fill="#111"/><circle cx="77.0" cy="78.0" r="8" fill="#f2f2f2"/><circle cx="20.0" cy="78.0" r="8" fill="#111"/></g><g class="rise" style="animation-delay:0.35s"><text x="118" y="42" font-size="17" class="b">hexago</text><text x="118" y="70" font-size="13" class="m">Hides messages in Go games.</text><text x="118" y="96" font-size="11.5" class="d">Python · Flask</text></g><circle cx="357" cy="37" r="3.5" fill="#5f6c7c"/><text x="388" y="41" font-size="11" text-anchor="end" style="fill:#5f6c7c">OSS</text></svg>