<svg xmlns="http://www.w3.org/2000/svg" width="840" height="300" viewBox="0 0 840 300" role="img"><style>
text{font-family:ui-monospace,SFMono-Regular,'JetBrains Mono',Menlo,Consolas,monospace;fill:#dfe5ec}
.m{fill:#9aa6b4}.d{fill:#5f6c7c}.chem{fill:#a78bfa}
.b{font-weight:700}
.fade{opacity:0;animation:fade .6s ease-out forwards}
.rise{opacity:0;animation:rise .6s cubic-bezier(.2,.8,.2,1) forwards}
.draw{animation:draw 1s ease-out forwards}
.pop{opacity:0;transform-box:fill-box;transform-origin:center;animation:pop .45s cubic-bezier(.3,1.6,.5,1) forwards}
@keyframes fade{to{opacity:1}}
@keyframes rise{from{opacity:0;transform:translateY(8px)}to{opacity:1;transform:none}}
@keyframes draw{to{stroke-dashoffset:0}}
@keyframes pop{from{opacity:0;transform:scale(.2)}to{opacity:1;transform:scale(1)}}
</style><rect x=".5" y=".5" width="839" height="299" rx="14" fill="#0b0f14" stroke="#1e2732"/><text x="32" y="38" font-size="12" class="d">featured</text><text x="808" y="38" font-size="12" class="d" text-anchor="end">founding engineer · 2026</text><text x="32" y="86" font-size="26" class="b rise" style="animation-delay:0.10s">Chem<tspan class="chem">Vecto</tspan></text><text x="32" y="114" font-size="14" class="m rise" style="animation-delay:0.25s">From one molecule to a shortlist worth making.</text><path d="M109.6,170.0 L92.3,180.0 L92.3,200.0 L109.6,210.0 L126.9,200.0 L126.9,180.0 Z" fill="none" stroke="#9aa6b4" stroke-width="2.2" stroke-linejoin="round" stroke-dasharray="120" stroke-dashoffset="120" class="draw" style="animation-delay:0.80s"/><line x1="109.6" y1="170.0" x2="109.6" y2="152.0" stroke="#9aa6b4" stroke-width="2.2" class="fade" style="animation-delay:1.20s"/><circle cx="109.6" cy="152.0" r="5" fill="#f87171" class="pop" style="animation-delay:1.30s"/><line x1="109.6" y1="210.0" x2="109.6" y2="228.0" stroke="#9aa6b4" stroke-width="2.2" class="fade" style="animation-delay:1.20s"/><circle cx="109.6" cy="228.0" r="5" fill="#60a5fa" class="pop" style="animation-delay:1.30s"/><line x1="92.3" y1="200.0" x2="76.3" y2="209.0" stroke="#9aa6b4" stroke-width="2.2" class="fade" style="animation-delay:1.20s"/><circle cx="76.3" cy="209.0" r="5" fill="#9aa6b4" class="pop" style="animation-delay:1.30s"/><circle cx="228.1" cy="197.2" r="2" fill="#5f6c7c" class="fade" style="animation-delay:1.35s"/><circle cx="294.6" cy="180.2" r="2" fill="#5f6c7c" class="fade" style="animation-delay:1.39s"/><circle cx="224.9" cy="188.8" r="2" fill="#5f6c7c" class="fade" style="animation-delay:1.43s"/><circle cx="279.1" cy="210.9" r="2" fill="#5f6c7c" class="fade" style="animation-delay:1.47s"/><circle cx="286.0" cy="199.0" r="2" fill="#5f6c7c" class="fade" style="animation-delay:1.51s"/><circle cx="310.8" cy="208.7" r="2" fill="#5f6c7c" class="fade" style="animation-delay:1.55s"/><circle cx="241.3" cy="168.4" r="2" fill="#5f6c7c" class="fade" style="animation-delay:1.63s"/><circle cx="254.5" cy="188.8" r="2" fill="#5f6c7c" class="fade" style="animation-delay:1.35s"/><circle cx="273.0" cy="203.2" r="2" fill="#5f6c7c" class="fade" style="animation-delay:1.39s"/><circle cx="297.7" cy="194.0" r="2" fill="#5f6c7c" class="fade" style="animation-delay:1.43s"/><circle cx="211.1" cy="203.3" r="2" fill="#5f6c7c" class="fade" style="animation-delay:1.47s"/><circle cx="222.2" cy="186.7" r="2" fill="#5f6c7c" class="fade" style="animation-delay:1.51s"/><circle cx="220.6" cy="190.0" r="2" fill="#5f6c7c" class="fade" style="animation-delay:1.55s"/><circle cx="241.4" cy="194.1" r="2" fill="#5f6c7c" class="fade" style="animation-delay:1.59s"/><circle cx="290.1" cy="164.9" r="2" fill="#5f6c7c" class="fade" style="animation-delay:1.63s"/><circle cx="256.2" cy="202.6" r="2" fill="#5f6c7c" class="fade" style="animation-delay:1.67s"/><circle cx="267.9" cy="170.9" r="2" fill="#5f6c7c" class="fade" style="animation-delay:1.39s"/><circle cx="281.7" cy="174.6" r="2" fill="#5f6c7c" class="fade" style="animation-delay:1.43s"/><circle cx="321.0" cy="180.4" r="2" fill="#5f6c7c" class="fade" style="animation-delay:1.47s"/><circle cx="285.4" cy="190.0" r="2" fill="#5f6c7c" class="fade" style="animation-delay:1.51s"/><circle cx="293.4" cy="178.6" r="2" fill="#5f6c7c" class="fade" style="animation-delay:1.55s"/><circle cx="294.8" cy="187.6" r="2" fill="#5f6c7c" class="fade" style="animation-delay:1.59s"/><circle cx="302.7" cy="201.9" r="2" fill="#5f6c7c" class="fade" style="animation-delay:1.63s"/><circle cx="287.8" cy="198.9" r="2" fill="#5f6c7c" class="fade" style="animation-delay:1.35s"/><circle cx="314.1" cy="182.8" r="2" fill="#5f6c7c" class="fade" style="animation-delay:1.39s"/><circle cx="281.4" cy="199.7" r="2" fill="#5f6c7c" class="fade" style="animation-delay:1.43s"/><circle cx="234.4" cy="182.5" r="2" fill="#5f6c7c" class="fade" style="animation-delay:1.55s"/><circle cx="294.1" cy="210.0" r="2" fill="#5f6c7c" class="fade" style="animation-delay:1.59s"/><circle cx="288.1" cy="203.3" r="2" fill="#5f6c7c" class="fade" style="animation-delay:1.63s"/><circle cx="270.3" cy="204.7" r="2" fill="#5f6c7c" class="fade" style="animation-delay:1.67s"/><circle cx="318.0" cy="183.8" r="2" fill="#5f6c7c" class="fade" style="animation-delay:1.35s"/><circle cx="272.1" cy="208.4" r="2" fill="#5f6c7c" class="fade" style="animation-delay:1.39s"/><circle cx="291.0" cy="168.4" r="2" fill="#5f6c7c" class="fade" style="animation-delay:1.43s"/><circle cx="270.1" cy="204.3" r="2" fill="#5f6c7c" class="fade" style="animation-delay:1.47s"/><circle cx="268.6" cy="173.2" r="2" fill="#5f6c7c" class="fade" style="animation-delay:1.51s"/><circle cx="298.3" cy="203.5" r="2" fill="#5f6c7c" class="fade" style="animation-delay:1.59s"/><circle cx="266.6" cy="215.7" r="2" fill="#5f6c7c" class="fade" style="animation-delay:1.63s"/><circle cx="242.0" cy="205.1" r="2" fill="#5f6c7c" class="fade" style="animation-delay:1.67s"/><circle cx="298.2" cy="184.5" r="2" fill="#5f6c7c" class="fade" style="animation-delay:1.35s"/><line x1="268.8" y1="188.0" x2="267.7" y2="192.8" stroke="#a78bfa" stroke-opacity=".6" stroke-width="1.2" stroke-dasharray="4.9" stroke-dashoffset="4.9" class="draw" style="animation-delay:1.75s"/><circle cx="267.7" cy="192.8" r="3" fill="#a78bfa" class="pop" style="animation-delay:1.85s"/><line x1="268.8" y1="188.0" x2="273.3" y2="194.0" stroke="#a78bfa" stroke-opacity=".6" stroke-width="1.2" stroke-dasharray="7.5" stroke-dashoffset="7.5" class="draw" style="animation-delay:1.79s"/><circle cx="273.3" cy="194.0" r="3" fill="#a78bfa" class="pop" style="animation-delay:1.89s"/><line x1="268.8" y1="188.0" x2="261.7" y2="184.8" stroke="#a78bfa" stroke-opacity=".6" stroke-width="1.2" stroke-dasharray="7.7" stroke-dashoffset="7.7" class="draw" style="animation-delay:1.83s"/><circle cx="261.7" cy="184.8" r="3" fill="#a78bfa" class="pop" style="animation-delay:1.93s"/><line x1="268.8" y1="188.0" x2="270.3" y2="178.6" stroke="#a78bfa" stroke-opacity=".6" stroke-width="1.2" stroke-dasharray="9.5" stroke-dashoffset="9.5" class="draw" style="animation-delay:1.87s"/><circle cx="270.3" cy="178.6" r="3" fill="#a78bfa" class="pop" style="animation-delay:1.97s"/><line x1="268.8" y1="188.0" x2="262.0" y2="197.0" stroke="#a78bfa" stroke-opacity=".6" stroke-width="1.2" stroke-dasharray="11.3" stroke-dashoffset="11.3" class="draw" style="animation-delay:1.91s"/><circle cx="262.0" cy="197.0" r="3" fill="#a78bfa" class="pop" style="animation-delay:2.01s"/><line x1="268.8" y1="188.0" x2="261.4" y2="197.1" stroke="#a78bfa" stroke-opacity=".6" stroke-width="1.2" stroke-dasharray="11.7" stroke-dashoffset="11.7" class="draw" style="animation-delay:1.95s"/><circle cx="261.4" cy="197.1" r="3" fill="#a78bfa" class="pop" style="animation-delay:2.05s"/><line x1="268.8" y1="188.0" x2="269.0" y2="175.2" stroke="#a78bfa" stroke-opacity=".6" stroke-width="1.2" stroke-dasharray="12.8" stroke-dashoffset="12.8" class="draw" style="animation-delay:1.99s"/><circle cx="269.0" cy="175.2" r="3" fill="#a78bfa" class="pop" style="animation-delay:2.09s"/><circle cx="268.8" cy="188.0" r="5" fill="#dfe5ec" class="pop" style="animation-delay:1.65s"/><circle cx="375.0" cy="176" r="8" fill="#2dd4bf" fill-opacity="0.9" class="pop" style="animation-delay:1.90s"/><circle cx="405.0" cy="176" r="8" fill="#f87171" fill-opacity="0.25" class="pop" style="animation-delay:1.96s"/><path d="M401.0,172 L409.0,180 M409.0,172 L401.0,180" stroke="#f87171" stroke-width="1.8" stroke-linecap="round" class="fade" style="animation-delay:2.40s"/><circle cx="435.0" cy="176" r="8" fill="#2dd4bf" fill-opacity="0.9" class="pop" style="animation-delay:2.02s"/><circle cx="465.0" cy="176" r="8" fill="#2dd4bf" fill-opacity="0.9" class="pop" style="animation-delay:2.08s"/><circle cx="375.0" cy="204" r="8" fill="#f87171" fill-opacity="0.25" class="pop" style="animation-delay:2.14s"/><path d="M371.0,200 L379.0,208 M379.0,200 L371.0,208" stroke="#f87171" stroke-width="1.8" stroke-linecap="round" class="fade" style="animation-delay:2.40s"/><circle cx="405.0" cy="204" r="8" fill="#2dd4bf" fill-opacity="0.9" class="pop" style="animation-delay:2.20s"/><circle cx="435.0" cy="204" r="8" fill="#f87171" fill-opacity="0.25" class="pop" style="animation-delay:2.26s"/><path d="M431.0,200 L439.0,208 M439.0,200 L431.0,208" stroke="#f87171" stroke-width="1.8" stroke-linecap="round" class="fade" style="animation-delay:2.40s"/><circle cx="465.0" cy="204" r="8" fill="#2dd4bf" fill-opacity="0.9" class="pop" style="animation-delay:2.32s"/><path d="M529.2,158 V220 H625.2" fill="none" stroke="#1e2732" stroke-width="1.5" class="fade" style="animation-delay:2.45s"/><circle cx="553.9" cy="190.1" r="2.4" fill="#5f6c7c" class="fade" style="animation-delay:2.55s"/><circle cx="563.1" cy="187.4" r="2.4" fill="#5f6c7c" class="fade" style="animation-delay:2.57s"/><circle cx="581.0" cy="211.1" r="2.4" fill="#5f6c7c" class="fade" style="animation-delay:2.59s"/><circle cx="538.1" cy="177.2" r="2.4" fill="#5f6c7c" class="fade" style="animation-delay:2.61s"/><circle cx="555.4" cy="203.7" r="2.4" fill="#5f6c7c" class="fade" style="animation-delay:2.63s"/><circle cx="606.9" cy="193.3" r="2.4" fill="#5f6c7c" class="fade" style="animation-delay:2.65s"/><circle cx="595.8" cy="193.0" r="2.4" fill="#5f6c7c" class="fade" style="animation-delay:2.67s"/><circle cx="581.9" cy="207.4" r="2.4" fill="#5f6c7c" class="fade" style="animation-delay:2.69s"/><circle cx="581.6" cy="175.8" r="2.4" fill="#5f6c7c" class="fade" style="animation-delay:2.71s"/><circle cx="573.8" cy="181.4" r="2.4" fill="#5f6c7c" class="fade" style="animation-delay:2.73s"/><circle cx="584.2" cy="211.2" r="2.4" fill="#5f6c7c" class="fade" style="animation-delay:2.75s"/><circle cx="590.3" cy="188.0" r="2.4" fill="#5f6c7c" class="fade" style="animation-delay:2.77s"/><circle cx="558.3" cy="212.6" r="2.4" fill="#5f6c7c" class="fade" style="animation-delay:2.79s"/><circle cx="597.8" cy="193.2" r="2.4" fill="#5f6c7c" class="fade" style="animation-delay:2.81s"/><path d="M537.2,164 L563.2,170 L587.2,182 L609.2,202" fill="none" stroke="#60a5fa" stroke-width="1.6" stroke-dasharray="83" stroke-dashoffset="83" class="draw" style="animation-delay:2.85s"/><circle cx="537.2" cy="164" r="3.6" fill="#60a5fa" class="pop" style="animation-delay:2.95s"/><circle cx="563.2" cy="170" r="3.6" fill="#60a5fa" class="pop" style="animation-delay:3.02s"/><circle cx="587.2" cy="182" r="3.6" fill="#60a5fa" class="pop" style="animation-delay:3.09s"/><circle cx="609.2" cy="202" r="3.6" fill="#60a5fa" class="pop" style="animation-delay:3.16s"/><ellipse cx="730.4" cy="162.0" rx="16" ry="26" fill="none" stroke="#60a5fa" stroke-opacity="0.9" stroke-width="1.5" stroke-dasharray="133.8" stroke-dashoffset="133.8" class="draw" style="animation-delay:3.00s"/><ellipse cx="730.4" cy="218.0" rx="16" ry="26" fill="none" stroke="#a78bfa" stroke-opacity="0.9" stroke-width="1.5" stroke-dasharray="133.8" stroke-dashoffset="133.8" class="draw" style="animation-delay:3.00s"/><ellipse cx="730.4" cy="169.0" rx="11" ry="19" fill="none" stroke="#60a5fa" stroke-opacity="0.65" stroke-width="1.5" stroke-dasharray="95.9" stroke-dashoffset="95.9" class="draw" style="animation-delay:3.15s"/><ellipse cx="730.4" cy="211.0" rx="11" ry="19" fill="none" stroke="#a78bfa" stroke-opacity="0.65" stroke-width="1.5" stroke-dasharray="95.9" stroke-dashoffset="95.9" class="draw" style="animation-delay:3.15s"/><ellipse cx="730.4" cy="177.0" rx="6" ry="11" fill="none" stroke="#60a5fa" stroke-opacity="0.4" stroke-width="1.5" stroke-dasharray="54.6" stroke-dashoffset="54.6" class="draw" style="animation-delay:3.30s"/><ellipse cx="730.4" cy="203.0" rx="6" ry="11" fill="none" stroke="#a78bfa" stroke-opacity="0.4" stroke-width="1.5" stroke-dasharray="54.6" stroke-dashoffset="54.6" class="draw" style="animation-delay:3.30s"/><circle cx="730.4" cy="190" r="3" fill="#dfe5ec" class="pop" style="animation-delay:3.00s"/><text x="187" y="195" font-size="16" text-anchor="middle" class="d fade" style="animation-delay:1.20s">›</text><text x="342" y="195" font-size="16" text-anchor="middle" class="d fade" style="animation-delay:1.75s">›</text><text x="498" y="195" font-size="16" text-anchor="middle" class="d fade" style="animation-delay:2.30s">›</text><text x="653" y="195" font-size="16" text-anchor="middle" class="d fade" style="animation-delay:2.85s">›</text><text x="110" y="262" font-size="13" text-anchor="middle" class="m rise" style="animation-delay:1.00s">a molecule</text><text x="265" y="262" font-size="13" text-anchor="middle" class="m rise" style="animation-delay:1.55s">its look-alikes</text><text x="420" y="262" font-size="13" text-anchor="middle" class="m rise" style="animation-delay:2.10s">risk screen</text><text x="575" y="262" font-size="13" text-anchor="middle" class="m rise" style="animation-delay:2.65s">best trade-offs</text><text x="730" y="262" font-size="13" text-anchor="middle" class="m rise" style="animation-delay:3.20s">quantum check</text></svg>